REM MD5 365cbf2e27029a03414b425e6622ce26
FILE "Tech PlayStation 97-7 (Japan).bin" BINARY
  TRACK 01 MODE2/2352
    INDEX 01 00:00:00
  TRACK 02 AUDIO
    INDEX 00 53:16:65
    INDEX 01 53:18:65
  TRACK 03 AUDIO
    INDEX 00 55:31:71
    INDEX 01 55:33:71
  TRACK 04 AUDIO
    INDEX 00 57:25:26
    INDEX 01 57:27:26
  TRACK 05 AUDIO
    INDEX 00 58:37:73
    INDEX 01 58:39:73
  TRACK 06 AUDIO
    INDEX 00 59:24:73
    INDEX 01 59:26:73
REM LEADOUT 63:34:40
